<svg width="50" height="50" viewBox="0 0 50 50" fill="none" xmlns="http://www.w3.org/2000/svg">
<rect width="50" height="50" fill="black"/>
<path d="M24.8711 16.001C24.9446 16.001 33.4572 16.0032 35.5859 16.5742C36.7666 16.8903 37.6947 17.8183 38.0107 18.999C38.5795 21.1279 38.584 25.5627 38.584 25.6006C38.584 25.6006 38.5842 30.0639 38.0107 32.2021C37.6947 33.3829 36.7666 34.3109 35.5859 34.627C33.4572 35.198 24.9446 35.2012 24.8711 35.2012C24.8711 35.2012 16.2933 35.2004 14.1553 34.627C12.9746 34.3109 12.0465 33.3828 11.7305 32.2021C11.1571 30.0639 11.1572 25.6006 11.1572 25.6006C11.1572 25.5627 11.1595 21.1279 11.7305 18.999C12.0466 17.8183 12.9746 16.8903 14.1553 16.5742C16.2933 16.0008 24.8711 16.001 24.8711 16.001ZM22.125 29.7148L29.251 25.6016L22.125 21.4873V29.7148Z" fill="white"/>
</svg>
